<?xml version="1.0" encoding="UTF-8"?>
<svg id="Layer_1" data-name="Layer 1" xmlns="http://www.w3.org/2000/svg" viewBox="0 0 209.2 34.85">
  <defs>
    <style>

      .cls-1 {
        fill: #1a1a1a;
        width: 185px;
      }

      .cls-1, .cls-2 {
        stroke-width: 0px;
      }

      .cls-2 {
        fill: #fe3e57;
      }
    </style>
  </defs>
  <path class="cls-1" d="m0,34.4V.1h.55l16.23,18.97L32.85.1h.55v34.3h-5.04v-17.62l.2-4.89c-1.1,1.7-2.11,3.06-3.05,4.09l-8.54,10.29h-.6L7.84,15.98l-3-4.09c.13,2,.2,3.63.2,4.89v17.62H0Z"/>
  <path class="cls-1" d="m90.82,23.92l7.19,10.49h-6.09l-6.09-8.94c-1.27.13-2.21.2-2.85.2h-3.2v8.74h-5.29V.45h8.49c4.66,0,8.26,1.13,10.81,3.4,2.55,2.26,3.82,5.36,3.82,9.29,0,5.19-2.26,8.79-6.79,10.78Zm-11.03-2.8h3c6.29,0,9.44-2.66,9.44-7.99s-3.15-8.04-9.44-8.04h-3v16.03Z"/>
  <path class="cls-2" d="m120.58,34.85c-4.89,0-9.02-1.65-12.38-4.94-3.36-3.3-5.04-7.46-5.04-12.48s1.68-9.14,5.04-12.43C111.56,1.7,115.69.05,120.58.05c6.06,0,10.59,2.25,13.58,6.74l-4.04,2.9c-2.1-3.26-5.28-4.89-9.54-4.89-3.5,0-6.37,1.2-8.64,3.59-2.26,2.4-3.4,5.41-3.4,9.04s1.13,6.65,3.4,9.06c2.26,2.41,5.14,3.62,8.64,3.62,4.29,0,7.64-1.78,10.04-5.34l4.04,2.85c-3.16,4.83-7.86,7.24-14.08,7.24Z"/>
  <path class="cls-2" d="m140.65,34.4V.45h5.29v15.27h16.33V.45h5.29v33.95h-5.29v-13.98h-16.33v13.98h-5.29Z"/>
  <path class="cls-2" d="m191.73,34.85c-4.93,0-9.08-1.65-12.46-4.94-3.38-3.3-5.07-7.46-5.07-12.48s1.69-9.19,5.07-12.48c3.38-3.3,7.53-4.94,12.46-4.94s9.03,1.65,12.41,4.94c3.38,3.29,5.07,7.46,5.07,12.48s-1.69,9.19-5.07,12.48c-3.38,3.3-7.51,4.94-12.41,4.94Zm-8.71-8.36c2.28,2.41,5.18,3.62,8.71,3.62s6.42-1.21,8.69-3.62c2.26-2.41,3.4-5.43,3.4-9.06s-1.13-6.65-3.4-9.06c-2.26-2.41-5.16-3.62-8.69-3.62s-6.43,1.21-8.71,3.62c-2.28,2.41-3.42,5.43-3.42,9.06s1.14,6.65,3.42,9.06Z"/>
  <polygon class="cls-1" points="54.07 .1 53.47 .1 38.94 34.4 44.04 34.4 53.67 9.54 63.46 34.4 68.95 34.4 54.07 .1"/>
</svg>