<svg xmlns="http://www.w3.org/2000/svg" height="20" data-name="Слой 2" viewBox="0 0 33.33 20"><defs><clipPath id="clippath"><path d="M0 0h33.33v20H0z" class="cls-3"/></clipPath><clipPath id="clippath-1"><path d="M0 0h33.33v20H0z" class="cls-3"/></clipPath><style>.cls-2,.cls-3,.cls-4{stroke-width:0}.cls-2{fill:#dce5e5}.cls-3{fill:none}.cls-4{fill:#fff}</style></defs><g id="Capa_1" data-name="Capa 1" style="clip-path:url(#clippath)"><g style="clip-path:url(#clippath-1)"><path d="M33.33 10c0 5.5-4.44 10-10 10s-10-4.5-10-10 4.45-10 9.95-10 10.05 4.5 10.05 10" style="fill:#ffb600;stroke-width:0"/><path d="M23.33 0c5.51 0 10 4.5 10 10s-4.44 10-10 10-10-4.5-10-10" style="fill:#f7981d;stroke-width:0"/><path d="M23.33 0c5.51 0 10 4.5 10 10s-4.44 10-10 10" style="fill:#ff8500;stroke-width:0"/><path d="M9.89 0C4.44.05 0 4.5 0 10s4.44 10 10 10c2.59 0 4.92-1 6.72-2.59.37-.32.69-.69 1-1.06h-2.06c-.26-.32-.53-.69-.74-1h3.55c.21-.32.42-.69.58-1.06h-4.71c-.16-.32-.32-.69-.42-1.06h5.5c.32-1.01.53-2.06.53-3.17 0-.74-.11-1.43-.21-2.12H13.6c.05-.37.16-.69.26-1.06h5.5c-.11-.37-.26-.74-.42-1.06h-4.66c.16-.37.37-.69.58-1.06h3.55c-.21-.37-.48-.74-.79-1.06h-1.96c.32-.37.63-.69 1-1C14.92 1.06 12.54.11 9.95.11q0-.11-.06-.11" style="fill:#ff5050;stroke-width:0"/><path d="M0 10c0 5.5 4.44 10 10 10 2.59 0 4.92-1 6.72-2.59.37-.32.69-.69 1-1.06h-2.06c-.26-.32-.53-.69-.74-1h3.55c.21-.32.42-.69.58-1.06h-4.71c-.16-.32-.32-.69-.42-1.06h5.5c.32-1.01.53-2.06.53-3.17 0-.74-.11-1.43-.21-2.12H13.6c.05-.37.16-.69.26-1.06h5.5c-.11-.37-.26-.74-.42-1.06h-4.66c.16-.37.37-.69.58-1.06h3.55c-.21-.37-.48-.74-.79-1.06h-1.96c.32-.37.63-.69 1-1.01C14.92 1.06 12.54.11 9.95.11H9.9" style="fill:#e52836;stroke-width:0"/><path d="M10 20c2.59 0 4.92-1 6.72-2.59.37-.32.69-.69 1.01-1.06h-2.06c-.26-.32-.53-.69-.74-1h3.55c.21-.32.42-.69.58-1.06h-4.71c-.16-.32-.32-.69-.42-1.06h5.5c.32-1.01.53-2.06.53-3.18 0-.74-.11-1.43-.21-2.12h-6.14c.05-.37.16-.69.26-1.06h5.5c-.11-.37-.26-.74-.42-1.06h-4.66c.16-.37.37-.69.58-1.06h3.55c-.21-.37-.48-.74-.79-1.06h-1.96c.32-.37.64-.69 1.01-1.01C14.92 1.06 12.54.11 9.95.11H9.9" style="stroke-width:0;fill:#cb2026"/><path d="m13.54 12.54.16-.9c-.05 0-.16.05-.26.05-.37 0-.42-.21-.37-.32l.32-1.85h.58l.16-1.01h-.53l.11-.63h-1.06s-.64 3.49-.64 3.92c0 .63.37.9.85.9.32 0 .58-.11.69-.16M13.92 10.85c0 1.48 1.01 1.85 1.85 1.85.79 0 1.11-.16 1.11-.16l.21-1s-.58.26-1.11.26c-1.16 0-.95-.85-.95-.85h2.17s.16-.69.16-.95c0-.69-.37-1.53-1.54-1.53-1.11-.11-1.9 1.06-1.9 2.38m1.85-1.53c.58 0 .48.69.48.74h-1.16c0-.05.11-.74.69-.74M22.49 12.54l.21-1.16s-.53.26-.9.26c-.74 0-1.06-.58-1.06-1.22 0-1.27.63-1.96 1.38-1.96.53 0 .95.32.95.32l.16-1.11s-.64-.26-1.22-.26c-1.22 0-2.43 1.06-2.43 3.07 0 1.32.63 2.22 1.9 2.22.42 0 1-.16 1-.16M7.72 8.36c-.74 0-1.27.21-1.27.21l-.16.9s.48-.21 1.16-.21c.37 0 .69.05.69.37 0 .21-.05.26-.05.26h-.48c-.9 0-1.91.37-1.91 1.59 0 .95.63 1.16 1.01 1.16.74 0 1.06-.48 1.11-.48l-.05.42h.95l.42-2.91c0-1.27-1.06-1.32-1.43-1.32m.21 2.38c0 .16-.11 1.01-.74 1.01-.32 0-.42-.26-.42-.42 0-.26.16-.63.95-.63.16.05.21.05.21.05M10.16 12.65c.26 0 1.59.05 1.59-1.38 0-1.32-1.27-1.06-1.27-1.59 0-.26.21-.37.58-.37.16 0 .74.05.74.05l.16-.95s-.37-.11-1.01-.11c-.79 0-1.59.32-1.59 1.38 0 1.22 1.32 1.11 1.32 1.59 0 .32-.37.37-.63.37-.48 0-.95-.16-.95-.16l-.16.95c.05.11.32.21 1.22.21M31.27 7.51l-.21 1.43s-.42-.53-1-.53c-.95 0-1.8 1.16-1.8 2.54 0 .85.42 1.75 1.32 1.75.63 0 1.01-.42 1.01-.42l-.05.37h1.06l.79-5.08-1.11-.05Zm-.48 2.8c0 .58-.26 1.32-.85 1.32-.37 0-.58-.32-.58-.85 0-.85.37-1.38.85-1.38.37 0 .58.26.58.9M1.96 12.59l.63-3.81.11 3.81h.74l1.38-3.81-.59 3.81h1.11l.85-5.08H4.44l-1.05 3.12-.06-3.12H1.8l-.85 5.08h1.01zM18.36 12.59c.32-1.75.37-3.17 1.11-2.91.11-.69.26-.95.37-1.22h-.21c-.48 0-.85.63-.85.63l.11-.58h-1l-.69 4.13h1.16v-.05ZM24.92 8.36c-.74 0-1.27.21-1.27.21l-.16.9s.48-.21 1.16-.21c.37 0 .69.05.69.37 0 .21-.05.26-.05.26h-.48c-.9 0-1.9.37-1.9 1.59 0 .95.63 1.16 1 1.16.74 0 1.06-.48 1.11-.48l-.05.42h.95l.42-2.91c.05-1.27-1.06-1.32-1.43-1.32m.26 2.38c0 .16-.11 1.01-.74 1.01-.32 0-.42-.26-.42-.42 0-.26.16-.63.95-.63q.16.05.21.05M27.25 12.59c.32-1.75.37-3.17 1.11-2.91.11-.69.26-.95.37-1.22h-.21c-.48 0-.85.63-.85.63l.11-.58h-1l-.69 4.13h1.16v-.05Z" class="cls-4"/><path d="M11.9 11.8c0 .63.37.9.85.9.37 0 .69-.11.79-.16l.16-.9c-.05 0-.16.05-.26.05-.37 0-.42-.21-.37-.32l.32-1.85h.58l.16-1h-.53l.11-.63M14.44 10.85c0 1.48.48 1.85 1.32 1.85.79 0 1.11-.16 1.11-.16l.21-1s-.58.26-1.11.26c-1.16 0-.95-.85-.95-.85h2.17s.16-.69.16-.95c0-.69-.37-1.53-1.54-1.53-1.11-.11-1.38 1.06-1.38 2.38m1.32-1.53c.58 0 .69.69.69.74h-1.38c0-.05.11-.74.69-.74M22.49 12.54l.21-1.16s-.53.26-.9.26c-.74 0-1.06-.58-1.06-1.22 0-1.27.63-1.96 1.38-1.96.53 0 .95.32.95.32l.16-1.11s-.64-.26-1.22-.26c-1.22 0-1.91 1.06-1.91 3.07 0 1.32.11 2.22 1.38 2.22.42 0 1-.16 1-.16M6.3 9.52s.48-.21 1.16-.21c.37 0 .69.05.69.37 0 .21-.05.26-.05.26h-.48c-.9 0-1.91.37-1.91 1.59 0 .95.63 1.16 1.01 1.16.74 0 1.06-.48 1.11-.48l-.05.42h.95l.42-2.91c0-1.22-1.06-1.27-1.48-1.27m.79 2.27c0 .16-.63 1.01-1.27 1.01-.32 0-.42-.26-.42-.42 0-.26.16-.63.95-.63.16.05.74.05.74.05M8.99 12.54s.32.11 1.22.11c.26 0 1.59.05 1.59-1.38 0-1.32-1.27-1.06-1.27-1.59 0-.26.21-.37.58-.37.16 0 .74.05.74.05l.16-.95s-.37-.11-1-.11c-.79 0-1.06.32-1.06 1.38 0 1.22.79 1.11.79 1.59 0 .32-.37.37-.63.37M31.06 8.94s-.42-.53-1-.53c-.95 0-1.27 1.16-1.27 2.54 0 .85-.11 1.75.79 1.75.63 0 1.01-.42 1.01-.42l-.05.37h1.06l.79-5.08m-1.38 2.75c0 .58-.48 1.32-1.06 1.32-.37 0-.58-.32-.58-.85 0-.85.37-1.38.85-1.38.37 0 .79.26.79.9M1.96 12.59l.63-3.81.11 3.81h.74l1.38-3.81-.59 3.81h1.11l.85-5.08H4.87l-1.48 3.12-.06-3.12h-.58l-1.8 5.08h1.01zM17.25 12.59h1.11c.32-1.75.37-3.17 1.11-2.91.11-.69.26-.95.37-1.22h-.21c-.48 0-.85.63-.85.63l.11-.58M23.49 9.52s.48-.21 1.16-.21c.37 0 .69.05.69.37 0 .21-.05.26-.05.26h-.48c-.9 0-1.9.37-1.9 1.59 0 .95.63 1.16 1 1.16.74 0 1.06-.48 1.11-.48l-.05.42h.95l.42-2.91c0-1.22-1.06-1.27-1.48-1.27m.79 2.27c0 .16-.64 1.01-1.27 1.01-.32 0-.42-.26-.42-.42 0-.26.16-.63.95-.63.21.05.74.05.74.05M26.14 12.59h1.11c.32-1.75.37-3.17 1.11-2.91.11-.69.26-.95.37-1.22h-.21c-.48 0-.85.63-.85.63l.11-.58" class="cls-2"/></g></g></svg>