<svg xmlns="http://www.w3.org/2000/svg" height="20" data-name="Слой 2" viewBox="0 0 78.26 20"><defs><style>.cls-2,.cls-3{stroke-width:0}.cls-2{fill:#139ad6}.cls-3{fill:#263b80}</style></defs><g id="Capa_1" data-name="Capa 1"><path d="M60.5 5.22h-4.22c-.25 0-.5.25-.62.5l-1.74 10.93c0 .25.12.37.37.37h2.24c.25 0 .37-.12.37-.37l.5-3.11c0-.25.25-.5.62-.5h1.37c2.86 0 4.47-1.37 4.84-4.1.25-1.12 0-2.11-.5-2.73-.75-.62-1.86-.99-3.23-.99m.5 4.1c-.25 1.49-1.37 1.49-2.48 1.49h-.75l.5-2.86c0-.12.12-.25.37-.25h.25c.75 0 1.49 0 1.86.5.25.12.25.5.25 1.12" class="cls-2"/><path d="M30.06 5.22h-4.22c-.25 0-.5.25-.62.5l-1.74 10.93c0 .25.12.37.37.37h1.99c.25 0 .5-.25.62-.5l.5-2.98c0-.25.25-.5.62-.5h1.37c2.86 0 4.47-1.37 4.84-4.1.25-1.12 0-2.11-.5-2.73-.75-.62-1.74-.99-3.23-.99m.5 4.1c-.25 1.49-1.37 1.49-2.48 1.49h-.62l.5-2.86c0-.12.12-.25.37-.25h.25c.75 0 1.49 0 1.86.5.12.12.25.5.12 1.12M42.86 9.19h-1.99c-.12 0-.37.12-.37.25l-.12.62-.12-.25c-.5-.62-1.37-.87-2.36-.87-2.24 0-4.22 1.74-4.6 4.1-.25 1.24.12 2.36.75 3.11s1.49.99 2.61.99c1.86 0 2.86-1.12 2.86-1.12l-.12.62c0 .25.12.37.37.37h1.86c.25 0 .5-.25.62-.5l1.12-6.96c-.12-.12-.37-.37-.5-.37m-2.86 3.98c-.25 1.12-1.12 1.99-2.36 1.99-.62 0-1.12-.25-1.37-.5-.25-.37-.37-.87-.37-1.49.12-1.12 1.12-1.99 2.24-1.99.62 0 .99.25 1.37.5.37.37.5.99.5 1.49" class="cls-3"/><path d="M73.17 9.19h-1.99c-.12 0-.37.12-.37.25l-.12.62-.12-.25c-.5-.62-1.37-.87-2.36-.87-2.24 0-4.22 1.74-4.6 4.1-.25 1.24.12 2.36.75 3.11s1.49.99 2.61.99c1.86 0 2.86-1.12 2.86-1.12l-.12.62c0 .25.12.37.37.37h1.86c.25 0 .5-.25.62-.5l1.12-6.96c-.12-.12-.25-.37-.5-.37m-2.86 3.98c-.25 1.12-1.12 1.99-2.36 1.99-.62 0-1.12-.25-1.37-.5-.25-.37-.37-.87-.37-1.49.12-1.12 1.12-1.99 2.24-1.99.62 0 .99.25 1.37.5.5.37.62.99.5 1.49" class="cls-2"/><path d="M53.66 9.19h-2.11c-.25 0-.37.12-.5.25l-2.73 4.22-1.24-3.98c-.12-.25-.25-.37-.62-.37h-1.99c-.25 0-.37.25-.37.5l2.24 6.58-2.11 2.98c-.12.25 0 .62.25.62h1.99c.25 0 .37-.12.5-.25l6.83-9.81c.37-.37.12-.75-.12-.75" class="cls-3"/><path d="m75.53 5.59-1.74 11.18c0 .25.12.37.37.37h1.74c.25 0 .5-.25.62-.5l1.74-10.93c0-.25-.12-.37-.37-.37H75.9c-.12-.12-.25 0-.37.25" class="cls-2"/><path d="M14.29 1.49C13.42.5 11.81 0 9.57 0H3.35c-.37 0-.75.37-.87.75L0 17.02c0 .37.25.62.5.62h3.85l.99-6.09v.25c.12-.37.5-.75.87-.75h1.86c3.6 0 6.34-1.49 7.2-5.59v-.37q-.12 0 0 0c.12-1.61-.12-2.61-.99-3.6" class="cls-3"/><path d="M15.16 5.09v.37c-.87 4.22-3.6 5.59-7.2 5.59H6.1c-.37 0-.75.37-.87.75l-1.24 7.58c0 .25.12.5.5.5h3.23c.37 0 .75-.25.75-.62v-.12l.62-3.85v-.25c0-.37.37-.62.75-.62h.5c3.11 0 5.59-1.24 6.21-4.97.25-1.49.12-2.86-.62-3.73-.12-.25-.37-.5-.75-.62" class="cls-2"/><path d="M14.29 4.72c-.12 0-.25-.12-.37-.12s-.25 0-.37-.12c-.5-.12-.99-.12-1.61-.12H7.1c-.12 0-.25 0-.37.12a.67.67 0 0 0-.37.62l-.99 6.46v.25c.12-.37.5-.75.87-.75H8.1c3.6 0 6.34-1.49 7.2-5.59 0-.12 0-.25.12-.37-.25-.12-.37-.25-.62-.25q-.37-.12-.5-.12" style="stroke-width:0;fill:#232c65"/></g></svg>