<svg xmlns="http://www.w3.org/2000/svg" height="20" viewBox="0 0 29 20"><defs><clipPath id="clippath"><path class="cls-2" d="M0 0h29v20H0z"/></clipPath><clipPath id="clippath-1"><path class="cls-2" d="M0 0h29v20H0z"/></clipPath><clipPath id="clippath-2"><path class="cls-2" d="M0 0h29v20H0z"/></clipPath><clipPath id="clippath-3"><path class="cls-2" d="M0 0h2.93v20H0z"/></clipPath><style>.cls-2{fill:none}.cls-2,.cls-3,.cls-4{stroke-width:0}.cls-3{fill:#f79f1a}.cls-4{fill:#059bbf}</style></defs><g style="clip-path:url(#clippath)" id="Capa_1" data-name="Capa 1"><g style="clip-path:url(#clippath-1)"><g style="clip-path:url(#clippath-2)"><path d="M1.71 0h25.57c.95 0 1.71.77 1.71 1.71v16.57c0 .95-.77 1.71-1.71 1.71H1.71c-.95 0-1.71-.77-1.71-1.71V1.71C0 .77.77 0 1.71 0Z" style="fill:#fff;stroke-width:0"/><path class="cls-3" d="m6.44 10.12-.68-3.27c-.12-.45-.45-.58-.88-.6H1.76l-.03.15c2.43.59 4.04 2.01 4.71 3.72"/><path class="cls-4" d="M13.67 6.31h-2.02l-1.26 7.4h2.02l1.26-7.4zM7.67 13.7l3.17-7.38H8.7l-1.97 5.04-.21-.76c-.39-.92-1.49-2.23-2.79-3.06l1.8 6.17h2.13ZM19.42 11.29c0-.84-.53-1.48-1.69-2.01-.71-.34-1.14-.57-1.13-.92 0-.31.36-.63 1.15-.63.66-.01 1.14.13 1.51.28l.18.08.27-1.6a5.19 5.19 0 0 0-1.81-.31c-1.99 0-3.39 1-3.41 2.44-.01 1.06 1 1.65 1.77 2.01.78.36 1.05.59 1.04.92 0 .49-.62.72-1.2.72-.81 0-1.23-.11-1.9-.39l-.26-.12-.28 1.66c.47.21 1.34.39 2.24.39 2.12 0 3.49-.99 3.51-2.53M21.82 12.6h2.58c.06.26.25 1.11.25 1.11h1.87l-1.63-7.39h-1.56c-.48 0-.84.13-1.05.61l-2.99 6.78h2.12s.34-.91.42-1.11m1.38-3.58s.17-.43.27-.71l.14.64s.38 1.77.47 2.14h-1.67c.17-.43.8-2.07.8-2.07M27.29 0H1.71C.77 0 0 .77 0 1.71v1.78h29V1.71C29 .77 28.23 0 27.29 0"/><path class="cls-3" d="M27.29 20H1.71C.77 20 0 19.23 0 18.29v-1.78h29v1.78c0 .95-.77 1.71-1.71 1.71"/><g style="isolation:isolate;opacity:.15"><g style="clip-path:url(#clippath-3)"><path d="M1.22 18.29V1.71C1.22.77 1.99 0 2.93 0H1.71C.77 0 0 .77 0 1.71v16.57C0 19.23.77 20 1.71 20h1.22c-.95 0-1.71-.77-1.71-1.71" style="fill:#202121;stroke-width:0"/></g></g></g></g></g></svg>